<svg width="93" height="93" viewBox="0 0 93 93" fill="none" xmlns="http://www.w3.org/2000/svg">
<circle cx="46.1332" cy="46.1332" r="46.1332" fill="#943196"/>
<path d="M27.6907 68.2772C27.6907 68.2772 24 68.2772 24 64.5865C24 60.8958 27.6907 49.8239 46.144 49.8239C64.5972 49.8239 68.2879 60.8958 68.2879 64.5865C68.2879 68.2772 64.5972 68.2772 64.5972 68.2772H27.6907ZM46.144 46.1332C49.0804 46.1332 51.8966 44.9667 53.973 42.8903C56.0494 40.8139 57.2159 37.9977 57.2159 35.0612C57.2159 32.1248 56.0494 29.3086 53.973 27.2322C51.8966 25.1558 49.0804 23.9893 46.144 23.9893C43.2075 23.9893 40.3913 25.1558 38.3149 27.2322C36.2385 29.3086 35.072 32.1248 35.072 35.0612C35.072 37.9977 36.2385 40.8139 38.3149 42.8903C40.3913 44.9667 43.2075 46.1332 46.144 46.1332Z" fill="white"/>
</svg>
