<svg width="36" height="39" viewBox="0 0 36 39" fill="none" xmlns="http://www.w3.org/2000/svg">
<rect width="36" height="34" fill="#090B36"/>
<path d="M7.29474 25V13.3636H10.1072V18.2841H10.2607L14.1072 13.3636H17.4197L13.2947 18.5568L17.4936 25H14.13L11.2322 20.4261L10.1072 21.8466V25H7.29474ZM28.8246 19.1818C28.8246 20.4621 28.5784 21.5473 28.0859 22.4375C27.5935 23.3277 26.9268 24.0038 26.0859 24.4659C25.2488 24.928 24.3094 25.1591 23.2678 25.1591C22.2223 25.1591 21.281 24.9261 20.4439 24.4602C19.6068 23.9943 18.942 23.3182 18.4496 22.4318C17.9609 21.5417 17.7166 20.4583 17.7166 19.1818C17.7166 17.9015 17.9609 16.8163 18.4496 15.9261C18.942 15.036 19.6068 14.3598 20.4439 13.8977C21.281 13.4356 22.2223 13.2045 23.2678 13.2045C24.3094 13.2045 25.2488 13.4356 26.0859 13.8977C26.9268 14.3598 27.5935 15.036 28.0859 15.9261C28.5784 16.8163 28.8246 17.9015 28.8246 19.1818ZM25.9496 19.1818C25.9496 18.4242 25.8416 17.7841 25.6257 17.2614C25.4136 16.7386 25.1068 16.3428 24.7053 16.0739C24.3075 15.8049 23.8284 15.6705 23.2678 15.6705C22.7109 15.6705 22.2318 15.8049 21.8303 16.0739C21.4287 16.3428 21.12 16.7386 20.9041 17.2614C20.692 17.7841 20.5859 18.4242 20.5859 19.1818C20.5859 19.9394 20.692 20.5795 20.9041 21.1023C21.12 21.625 21.4287 22.0208 21.8303 22.2898C22.2318 22.5587 22.7109 22.6932 23.2678 22.6932C23.8284 22.6932 24.3075 22.5587 24.7053 22.2898C25.1068 22.0208 25.4136 21.625 25.6257 21.1023C25.8416 20.5795 25.9496 19.9394 25.9496 19.1818Z" fill="white"/>
</svg>
