<svg width="93" height="93" viewBox="0 0 93 93" fill="none" xmlns="http://www.w3.org/2000/svg">
<circle cx="46.1326" cy="46.1326" r="46.1326" fill="#178421"/>
<path d="M24.645 65.3307L45.8129 43.7405L42.7259 40.547L41.1383 42.1438C40.9343 42.3522 40.692 42.5177 40.4253 42.6305C40.1585 42.7434 39.8726 42.8015 39.5838 42.8015C39.295 42.8015 39.0091 42.7434 38.7423 42.6305C38.4756 42.5177 38.2333 42.3522 38.0293 42.1438L36.4637 40.547C36.2593 40.3389 36.0971 40.0918 35.9865 39.8197C35.8758 39.5477 35.8189 39.256 35.8189 38.9615C35.8189 38.6669 35.8758 38.3753 35.9865 38.1032C36.0971 37.8311 36.2593 37.584 36.4637 37.3759L48.944 24.6467C49.148 24.4382 49.3903 24.2728 49.657 24.16C49.9238 24.0471 50.2097 23.989 50.4985 23.989C50.7873 23.989 51.0732 24.0471 51.34 24.16C51.6067 24.2728 51.849 24.4382 52.053 24.6467L53.6186 26.2435C54.4785 27.1206 54.4785 28.5374 53.6186 29.4145L52.053 30.9663L55.1841 34.1824C55.3881 33.9739 55.6304 33.8085 55.8972 33.6956C56.1639 33.5828 56.4499 33.5247 56.7386 33.5247C57.0274 33.5247 57.3134 33.5828 57.5801 33.6956C57.8469 33.8085 58.0892 33.9739 58.2932 34.1824C59.1531 35.0595 59.1531 36.4988 58.2932 37.3759L61.4022 40.547L62.9677 38.9502C63.8277 38.0731 65.2389 38.0731 66.0988 38.9502L67.6423 40.547C68.5023 41.4241 68.5023 42.8634 67.6423 43.7405L55.1841 56.4473C54.3242 57.3244 52.913 57.3244 52.053 56.4473L50.5095 54.873C50.3002 54.6655 50.1337 54.4172 50.0201 54.143C49.9064 53.8687 49.8479 53.574 49.8479 53.2762C49.8479 52.9784 49.9064 52.6837 50.0201 52.4094C50.1337 52.1352 50.3002 51.8869 50.5095 51.6794L52.053 50.0826L48.944 46.9116L27.754 68.5243C27.55 68.7328 27.3077 68.8982 27.041 69.011C26.7742 69.1239 26.4883 69.182 26.1995 69.182C25.9107 69.182 25.6247 69.1239 25.358 69.011C25.0913 68.8982 24.849 68.7328 24.645 68.5243C23.785 67.6472 23.785 66.2078 24.645 65.3307ZM63.6733 62.452C64.8429 62.452 65.9646 62.9259 66.7917 63.7694C67.6187 64.613 68.0833 65.757 68.0833 66.95V69.199H46.0334V66.95C46.0334 65.757 46.498 64.613 47.3251 63.7694C48.1521 62.9259 49.2738 62.452 50.4434 62.452H63.6733Z" fill="white"/>
</svg>
