<svg width="286" height="19" viewBox="0 0 286 19" fill="none" xmlns="http://www.w3.org/2000/svg">
<path d="M4.03906 0.9375V18H0.523438V0.9375H4.03906ZM14.2578 0.9375L7.49609 9.36328L3.59375 13.5586L2.96094 10.2305L5.59766 6.62109L9.94531 0.9375H14.2578ZM10.2617 18L5.23438 10.1133L7.83594 7.93359L14.4219 18H10.2617ZM27.2305 15.2578V18H18.1484V15.2578H27.2305ZM19.2969 0.9375V18H15.7812V0.9375H19.2969ZM26.0469 7.88672V10.5586H18.1484V7.88672H26.0469ZM27.2188 0.9375V3.69141H18.1484V0.9375H27.2188ZM30.8867 0.9375H33.8633L38.2461 13.4648L42.6289 0.9375H45.6055L39.4414 18H37.0508L30.8867 0.9375ZM29.2812 0.9375H32.2461L32.7852 13.1484V18H29.2812V0.9375ZM44.2461 0.9375H47.2227V18H43.707V13.1484L44.2461 0.9375ZM54.043 0.9375V18H50.5391V0.9375H54.043ZM66.2188 13.5352C66.2188 13.2305 66.1719 12.957 66.0781 12.7148C65.9922 12.4648 65.8281 12.2383 65.5859 12.0352C65.3438 11.8242 65.0039 11.6172 64.5664 11.4141C64.1289 11.2109 63.5625 11 62.8672 10.7812C62.0938 10.5312 61.3594 10.25 60.6641 9.9375C59.9766 9.625 59.3672 9.26172 58.8359 8.84766C58.3125 8.42578 57.8984 7.9375 57.5938 7.38281C57.2969 6.82812 57.1484 6.18359 57.1484 5.44922C57.1484 4.73828 57.3047 4.09375 57.6172 3.51562C57.9297 2.92969 58.3672 2.42969 58.9297 2.01562C59.4922 1.59375 60.1562 1.26953 60.9219 1.04297C61.6953 0.816406 62.543 0.703125 63.4648 0.703125C64.7227 0.703125 65.8203 0.929687 66.7578 1.38281C67.6953 1.83594 68.4219 2.45703 68.9375 3.24609C69.4609 4.03516 69.7227 4.9375 69.7227 5.95312H66.2305C66.2305 5.45312 66.125 5.01562 65.9141 4.64062C65.7109 4.25781 65.3984 3.95703 64.9766 3.73828C64.5625 3.51953 64.0391 3.41016 63.4062 3.41016C62.7969 3.41016 62.2891 3.50391 61.8828 3.69141C61.4766 3.87109 61.1719 4.11719 60.9688 4.42969C60.7656 4.73438 60.6641 5.07812 60.6641 5.46094C60.6641 5.75 60.7344 6.01172 60.875 6.24609C61.0234 6.48047 61.2422 6.69922 61.5312 6.90234C61.8203 7.10547 62.1758 7.29688 62.5977 7.47656C63.0195 7.65625 63.5078 7.83203 64.0625 8.00391C64.9922 8.28516 65.8086 8.60156 66.5117 8.95312C67.2227 9.30469 67.8164 9.69922 68.293 10.1367C68.7695 10.5742 69.1289 11.0703 69.3711 11.625C69.6133 12.1797 69.7344 12.8086 69.7344 13.5117C69.7344 14.2539 69.5898 14.918 69.3008 15.5039C69.0117 16.0898 68.5938 16.5859 68.0469 16.9922C67.5 17.3984 66.8477 17.707 66.0898 17.918C65.332 18.1289 64.4844 18.2344 63.5469 18.2344C62.7031 18.2344 61.8711 18.125 61.0508 17.9062C60.2305 17.6797 59.4844 17.3398 58.8125 16.8867C58.1484 16.4336 57.6172 15.8555 57.2188 15.1523C56.8203 14.4492 56.6211 13.6172 56.6211 12.6562H60.1484C60.1484 13.1875 60.2305 13.6367 60.3945 14.0039C60.5586 14.3711 60.7891 14.668 61.0859 14.8945C61.3906 15.1211 61.75 15.2852 62.1641 15.3867C62.5859 15.4883 63.0469 15.5391 63.5469 15.5391C64.1562 15.5391 64.6562 15.4531 65.0469 15.2812C65.4453 15.1094 65.7383 14.8711 65.9258 14.5664C66.1211 14.2617 66.2188 13.918 66.2188 13.5352ZM86.1406 9.07031V9.87891C86.1406 11.1758 85.9648 12.3398 85.6133 13.3711C85.2617 14.4023 84.7656 15.2812 84.125 16.0078C83.4844 16.7266 82.7188 17.2773 81.8281 17.6602C80.9453 18.043 79.9648 18.2344 78.8867 18.2344C77.8164 18.2344 76.8359 18.043 75.9453 17.6602C75.0625 17.2773 74.2969 16.7266 73.6484 16.0078C73 15.2812 72.4961 14.4023 72.1367 13.3711C71.7852 12.3398 71.6094 11.1758 71.6094 9.87891V9.07031C71.6094 7.76562 71.7852 6.60156 72.1367 5.57812C72.4883 4.54688 72.9844 3.66797 73.625 2.94141C74.2734 2.21484 75.0391 1.66016 75.9219 1.27734C76.8125 0.894531 77.793 0.703125 78.8633 0.703125C79.9414 0.703125 80.9219 0.894531 81.8047 1.27734C82.6953 1.66016 83.4609 2.21484 84.1016 2.94141C84.75 3.66797 85.25 4.54688 85.6016 5.57812C85.9609 6.60156 86.1406 7.76562 86.1406 9.07031ZM82.5898 9.87891V9.04688C82.5898 8.14062 82.5078 7.34375 82.3438 6.65625C82.1797 5.96875 81.9375 5.39062 81.6172 4.92188C81.2969 4.45312 80.9062 4.10156 80.4453 3.86719C79.9844 3.625 79.457 3.50391 78.8633 3.50391C78.2695 3.50391 77.7422 3.625 77.2812 3.86719C76.8281 4.10156 76.4414 4.45312 76.1211 4.92188C75.8086 5.39062 75.5703 5.96875 75.4062 6.65625C75.2422 7.34375 75.1602 8.14062 75.1602 9.04688V9.87891C75.1602 10.7773 75.2422 11.5742 75.4062 12.2695C75.5703 12.957 75.8125 13.5391 76.1328 14.0156C76.4531 14.4844 76.8438 14.8398 77.3047 15.082C77.7656 15.3242 78.293 15.4453 78.8867 15.4453C79.4805 15.4453 80.0078 15.3242 80.4688 15.082C80.9297 14.8398 81.3164 14.4844 81.6289 14.0156C81.9414 13.5391 82.1797 12.957 82.3438 12.2695C82.5078 11.5742 82.5898 10.7773 82.5898 9.87891ZM99.6406 15.2578V18H91.0508V15.2578H99.6406ZM92.1875 0.9375V18H88.6719V0.9375H92.1875ZM108.828 3.85547L104.188 18H100.449L106.789 0.9375H109.168L108.828 3.85547ZM112.684 18L108.031 3.85547L107.656 0.9375H110.059L116.434 18H112.684ZM112.473 11.6484V14.4023H103.461V11.6484H112.473ZM138.008 9.07031V9.87891C138.008 11.1758 137.832 12.3398 137.48 13.3711C137.129 14.4023 136.633 15.2812 135.992 16.0078C135.352 16.7266 134.586 17.2773 133.695 17.6602C132.812 18.043 131.832 18.2344 130.754 18.2344C129.684 18.2344 128.703 18.043 127.812 17.6602C126.93 17.2773 126.164 16.7266 125.516 16.0078C124.867 15.2812 124.363 14.4023 124.004 13.3711C123.652 12.3398 123.477 11.1758 123.477 9.87891V9.07031C123.477 7.76562 123.652 6.60156 124.004 5.57812C124.355 4.54688 124.852 3.66797 125.492 2.94141C126.141 2.21484 126.906 1.66016 127.789 1.27734C128.68 0.894531 129.66 0.703125 130.73 0.703125C131.809 0.703125 132.789 0.894531 133.672 1.27734C134.562 1.66016 135.328 2.21484 135.969 2.94141C136.617 3.66797 137.117 4.54688 137.469 5.57812C137.828 6.60156 138.008 7.76562 138.008 9.07031ZM134.457 9.87891V9.04688C134.457 8.14062 134.375 7.34375 134.211 6.65625C134.047 5.96875 133.805 5.39062 133.484 4.92188C133.164 4.45312 132.773 4.10156 132.312 3.86719C131.852 3.625 131.324 3.50391 130.73 3.50391C130.137 3.50391 129.609 3.625 129.148 3.86719C128.695 4.10156 128.309 4.45312 127.988 4.92188C127.676 5.39062 127.438 5.96875 127.273 6.65625C127.109 7.34375 127.027 8.14062 127.027 9.04688V9.87891C127.027 10.7773 127.109 11.5742 127.273 12.2695C127.438 12.957 127.68 13.5391 128 14.0156C128.32 14.4844 128.711 14.8398 129.172 15.082C129.633 15.3242 130.16 15.4453 130.754 15.4453C131.348 15.4453 131.875 15.3242 132.336 15.082C132.797 14.8398 133.184 14.4844 133.496 14.0156C133.809 13.5391 134.047 12.957 134.211 12.2695C134.375 11.5742 134.457 10.7773 134.457 9.87891ZM142.367 0.9375L145.93 8.71875L149.492 0.9375H153.324L147.711 11.7891V18H144.148V11.7891L138.523 0.9375H142.367ZM166.332 15.2578V18H157.25V15.2578H166.332ZM158.398 0.9375V18H154.883V0.9375H158.398ZM165.148 7.88672V10.5586H157.25V7.88672H165.148ZM166.32 0.9375V3.69141H157.25V0.9375H166.32ZM176.246 0.9375V18H172.742V0.9375H176.246ZM181.496 0.9375V3.69141H167.574V0.9375H181.496ZM189.172 3.85547L184.531 18H180.793L187.133 0.9375H189.512L189.172 3.85547ZM193.027 18L188.375 3.85547L188 0.9375H190.402L196.777 18H193.027ZM192.816 11.6484V14.4023H183.805V11.6484H192.816ZM199.156 0.9375L202.719 8.71875L206.281 0.9375H210.113L204.5 11.7891V18H200.938V11.7891L195.312 0.9375H199.156ZM225.336 9.07031V9.87891C225.336 11.1758 225.16 12.3398 224.809 13.3711C224.457 14.4023 223.961 15.2812 223.32 16.0078C222.68 16.7266 221.914 17.2773 221.023 17.6602C220.141 18.043 219.16 18.2344 218.082 18.2344C217.012 18.2344 216.031 18.043 215.141 17.6602C214.258 17.2773 213.492 16.7266 212.844 16.0078C212.195 15.2812 211.691 14.4023 211.332 13.3711C210.98 12.3398 210.805 11.1758 210.805 9.87891V9.07031C210.805 7.76562 210.98 6.60156 211.332 5.57812C211.684 4.54688 212.18 3.66797 212.82 2.94141C213.469 2.21484 214.234 1.66016 215.117 1.27734C216.008 0.894531 216.988 0.703125 218.059 0.703125C219.137 0.703125 220.117 0.894531 221 1.27734C221.891 1.66016 222.656 2.21484 223.297 2.94141C223.945 3.66797 224.445 4.54688 224.797 5.57812C225.156 6.60156 225.336 7.76562 225.336 9.07031ZM221.785 9.87891V9.04688C221.785 8.14062 221.703 7.34375 221.539 6.65625C221.375 5.96875 221.133 5.39062 220.812 4.92188C220.492 4.45312 220.102 4.10156 219.641 3.86719C219.18 3.625 218.652 3.50391 218.059 3.50391C217.465 3.50391 216.938 3.625 216.477 3.86719C216.023 4.10156 215.637 4.45312 215.316 4.92188C215.004 5.39062 214.766 5.96875 214.602 6.65625C214.438 7.34375 214.355 8.14062 214.355 9.04688V9.87891C214.355 10.7773 214.438 11.5742 214.602 12.2695C214.766 12.957 215.008 13.5391 215.328 14.0156C215.648 14.4844 216.039 14.8398 216.5 15.082C216.961 15.3242 217.488 15.4453 218.082 15.4453C218.676 15.4453 219.203 15.3242 219.664 15.082C220.125 14.8398 220.512 14.4844 220.824 14.0156C221.137 13.5391 221.375 12.957 221.539 12.2695C221.703 11.5742 221.785 10.7773 221.785 9.87891ZM236.316 8.87109L239.598 6.75C240.082 6.42969 240.406 6.12109 240.57 5.82422C240.734 5.52734 240.816 5.19531 240.816 4.82812C240.816 4.46094 240.68 4.12109 240.406 3.80859C240.133 3.48828 239.75 3.32812 239.258 3.32812C238.906 3.32812 238.609 3.41016 238.367 3.57422C238.125 3.73047 237.941 3.94141 237.816 4.20703C237.699 4.47266 237.641 4.76953 237.641 5.09766C237.641 5.44922 237.734 5.80859 237.922 6.17578C238.109 6.53516 238.363 6.91797 238.684 7.32422C239.004 7.72266 239.359 8.15625 239.75 8.625L247.801 18H243.969L237.406 10.4062C236.852 9.71875 236.367 9.08984 235.953 8.51953C235.539 7.94141 235.215 7.37891 234.98 6.83203C234.746 6.28516 234.629 5.72266 234.629 5.14453C234.629 4.25391 234.82 3.47656 235.203 2.8125C235.586 2.14063 236.125 1.62109 236.82 1.25391C237.516 0.878906 238.332 0.691406 239.27 0.691406C240.152 0.691406 240.918 0.875 241.566 1.24219C242.215 1.60156 242.715 2.07812 243.066 2.67188C243.426 3.26563 243.605 3.91797 243.605 4.62891C243.605 5.16016 243.508 5.65234 243.312 6.10547C243.117 6.55078 242.848 6.96484 242.504 7.34766C242.16 7.72266 241.766 8.07031 241.32 8.39062L237.582 11.0508C237.293 11.3164 237.074 11.5781 236.926 11.8359C236.777 12.0938 236.676 12.3398 236.621 12.5742C236.566 12.8008 236.539 13.0195 236.539 13.2305C236.539 13.6836 236.637 14.0898 236.832 14.4492C237.027 14.8086 237.301 15.0898 237.652 15.293C238.004 15.4961 238.414 15.5977 238.883 15.5977C239.523 15.5977 240.145 15.457 240.746 15.1758C241.348 14.8945 241.887 14.4922 242.363 13.9688C242.84 13.4375 243.219 12.8086 243.5 12.082C243.781 11.3555 243.922 10.5547 243.922 9.67969H246.781C246.781 10.5547 246.695 11.3867 246.523 12.1758C246.352 12.957 246.074 13.6836 245.691 14.3555C245.309 15.0195 244.801 15.6094 244.168 16.125C244.121 16.1641 244.055 16.2227 243.969 16.3008C243.891 16.3711 243.824 16.4258 243.77 16.4648C243.02 17.0664 242.238 17.5156 241.426 17.8125C240.613 18.1016 239.707 18.2461 238.707 18.2461C237.566 18.2461 236.578 18.0391 235.742 17.625C234.914 17.2109 234.273 16.6406 233.82 15.9141C233.375 15.1875 233.152 14.3555 233.152 13.418C233.152 12.7305 233.285 12.1328 233.551 11.625C233.824 11.1094 234.199 10.6328 234.676 10.1953C235.152 9.75781 235.699 9.31641 236.316 8.87109ZM265.508 12.3398H269.012C268.941 13.4883 268.625 14.5078 268.062 15.3984C267.508 16.2891 266.73 16.9844 265.73 17.4844C264.738 17.9844 263.543 18.2344 262.145 18.2344C261.051 18.2344 260.07 18.0469 259.203 17.6719C258.336 17.2891 257.594 16.7422 256.977 16.0312C256.367 15.3203 255.902 14.4609 255.582 13.4531C255.262 12.4453 255.102 11.3164 255.102 10.0664V8.88281C255.102 7.63281 255.266 6.50391 255.594 5.49609C255.93 4.48047 256.406 3.61719 257.023 2.90625C257.648 2.19531 258.395 1.64844 259.262 1.26562C260.129 0.882812 261.098 0.691406 262.168 0.691406C263.59 0.691406 264.789 0.949219 265.766 1.46484C266.75 1.98047 267.512 2.69141 268.051 3.59766C268.598 4.50391 268.926 5.53516 269.035 6.69141H265.52C265.48 6.00391 265.344 5.42188 265.109 4.94531C264.875 4.46094 264.52 4.09766 264.043 3.85547C263.574 3.60547 262.949 3.48047 262.168 3.48047C261.582 3.48047 261.07 3.58984 260.633 3.80859C260.195 4.02734 259.828 4.35938 259.531 4.80469C259.234 5.25 259.012 5.8125 258.863 6.49219C258.723 7.16406 258.652 7.95312 258.652 8.85938V10.0664C258.652 10.9492 258.719 11.7266 258.852 12.3984C258.984 13.0625 259.188 13.625 259.461 14.0859C259.742 14.5391 260.102 14.8828 260.539 15.1172C260.984 15.3438 261.52 15.457 262.145 15.457C262.879 15.457 263.484 15.3398 263.961 15.1055C264.438 14.8711 264.801 14.5234 265.051 14.0625C265.309 13.6016 265.461 13.0273 265.508 12.3398ZM285.336 9.07031V9.87891C285.336 11.1758 285.16 12.3398 284.809 13.3711C284.457 14.4023 283.961 15.2812 283.32 16.0078C282.68 16.7266 281.914 17.2773 281.023 17.6602C280.141 18.043 279.16 18.2344 278.082 18.2344C277.012 18.2344 276.031 18.043 275.141 17.6602C274.258 17.2773 273.492 16.7266 272.844 16.0078C272.195 15.2812 271.691 14.4023 271.332 13.3711C270.98 12.3398 270.805 11.1758 270.805 9.87891V9.07031C270.805 7.76562 270.98 6.60156 271.332 5.57812C271.684 4.54688 272.18 3.66797 272.82 2.94141C273.469 2.21484 274.234 1.66016 275.117 1.27734C276.008 0.894531 276.988 0.703125 278.059 0.703125C279.137 0.703125 280.117 0.894531 281 1.27734C281.891 1.66016 282.656 2.21484 283.297 2.94141C283.945 3.66797 284.445 4.54688 284.797 5.57812C285.156 6.60156 285.336 7.76562 285.336 9.07031ZM281.785 9.87891V9.04688C281.785 8.14062 281.703 7.34375 281.539 6.65625C281.375 5.96875 281.133 5.39062 280.812 4.92188C280.492 4.45312 280.102 4.10156 279.641 3.86719C279.18 3.625 278.652 3.50391 278.059 3.50391C277.465 3.50391 276.938 3.625 276.477 3.86719C276.023 4.10156 275.637 4.45312 275.316 4.92188C275.004 5.39062 274.766 5.96875 274.602 6.65625C274.438 7.34375 274.355 8.14062 274.355 9.04688V9.87891C274.355 10.7773 274.438 11.5742 274.602 12.2695C274.766 12.957 275.008 13.5391 275.328 14.0156C275.648 14.4844 276.039 14.8398 276.5 15.082C276.961 15.3242 277.488 15.4453 278.082 15.4453C278.676 15.4453 279.203 15.3242 279.664 15.082C280.125 14.8398 280.512 14.4844 280.824 14.0156C281.137 13.5391 281.375 12.957 281.539 12.2695C281.703 11.5742 281.785 10.7773 281.785 9.87891Z" fill="#070934"/>
</svg>
