<svg width="93" height="93" viewBox="0 0 93 93" fill="none" xmlns="http://www.w3.org/2000/svg">
<circle cx="46.1332" cy="46.1332" r="46.1332" fill="#2C31AD"/>
<path d="M30.6437 24C28.8818 24 27.192 24.5384 25.9461 25.4968C24.7002 26.4552 24.0002 27.755 24.0002 29.1104V66.5865C24.0002 67.5269 24.9923 68.29 26.2147 68.29H32.8582V58.6371C32.8582 58.1853 33.0916 57.752 33.5069 57.4325C33.9222 57.1131 34.4854 56.9336 35.0727 56.9336H57.2177C57.8051 56.9336 58.3683 57.1131 58.7836 57.4325C59.1989 57.752 59.4322 58.1853 59.4322 58.6371V68.29H66.0757C66.6631 68.29 67.2263 68.1105 67.6416 67.7911C68.0569 67.4716 68.2902 67.0383 68.2902 66.5865V46.145C68.2902 44.7896 67.5903 43.4898 66.3444 42.5314C65.0985 41.573 63.4087 41.0346 61.6467 41.0346H59.4322V29.1104C59.4322 27.755 58.7323 26.4552 57.4864 25.4968C56.2405 24.5384 54.5507 24 52.7887 24H30.6437ZM32.8582 34.2208C32.8582 33.6184 33.1693 33.0407 33.7231 32.6147C34.2768 32.1888 35.0278 31.9495 35.8109 31.9495C36.594 31.9495 37.345 32.1888 37.8988 32.6147C38.4525 33.0407 38.7636 33.6184 38.7636 34.2208C38.7636 34.8232 38.4525 35.4009 37.8988 35.8268C37.345 36.2528 36.594 36.4921 35.8109 36.4921C35.0278 36.4921 34.2768 36.2528 33.7231 35.8268C33.1693 35.4009 32.8582 34.8232 32.8582 34.2208ZM35.8109 47.8485C36.594 47.8485 37.345 48.0878 37.8988 48.5137C38.4525 48.9397 38.7636 49.5174 38.7636 50.1197C38.7636 50.7221 38.4525 51.2998 37.8988 51.7258C37.345 52.1517 36.594 52.391 35.8109 52.391C35.0278 52.391 34.2768 52.1517 33.7231 51.7258C33.1693 51.2998 32.8582 50.7221 32.8582 50.1197C32.8582 49.5174 33.1693 48.9397 33.7231 48.5137C34.2768 48.0878 35.0278 47.8485 35.8109 47.8485ZM32.8582 42.1703C32.8582 41.5679 33.1693 40.9902 33.7231 40.5642C34.2768 40.1383 35.0278 39.899 35.8109 39.899C36.594 39.899 37.345 40.1383 37.8988 40.5642C38.4525 40.9902 38.7636 41.5679 38.7636 42.1703C38.7636 42.7726 38.4525 43.3503 37.8988 43.7763C37.345 44.2022 36.594 44.4415 35.8109 44.4415C35.0278 44.4415 34.2768 44.2022 33.7231 43.7763C33.1693 43.3503 32.8582 42.7726 32.8582 42.1703ZM46.1452 31.9495C46.9283 31.9495 47.6794 32.1888 48.2331 32.6147C48.7868 33.0407 49.0979 33.6184 49.0979 34.2208C49.0979 34.8232 48.7868 35.4009 48.2331 35.8268C47.6794 36.2528 46.9283 36.4921 46.1452 36.4921C45.3621 36.4921 44.6111 36.2528 44.0574 35.8268C43.5037 35.4009 43.1926 34.8232 43.1926 34.2208C43.1926 33.6184 43.5037 33.0407 44.0574 32.6147C44.6111 32.1888 45.3621 31.9495 46.1452 31.9495ZM43.1926 50.1197C43.1926 49.5174 43.5037 48.9397 44.0574 48.5137C44.6111 48.0878 45.3621 47.8485 46.1452 47.8485C46.9283 47.8485 47.6794 48.0878 48.2331 48.5137C48.7868 48.9397 49.0979 49.5174 49.0979 50.1197C49.0979 50.7221 48.7868 51.2998 48.2331 51.7258C47.6794 52.1517 46.9283 52.391 46.1452 52.391C45.3621 52.391 44.6111 52.1517 44.0574 51.7258C43.5037 51.2998 43.1926 50.7221 43.1926 50.1197ZM56.4796 47.8485C57.2627 47.8485 58.0137 48.0878 58.5674 48.5137C59.1212 48.9397 59.4322 49.5174 59.4322 50.1197C59.4322 50.7221 59.1212 51.2998 58.5674 51.7258C58.0137 52.1517 57.2627 52.391 56.4796 52.391C55.6965 52.391 54.9455 52.1517 54.3917 51.7258C53.838 51.2998 53.5269 50.7221 53.5269 50.1197C53.5269 49.5174 53.838 48.9397 54.3917 48.5137C54.9455 48.0878 55.6965 47.8485 56.4796 47.8485ZM43.1926 42.1703C43.1926 41.5679 43.5037 40.9902 44.0574 40.5642C44.6111 40.1383 45.3621 39.899 46.1452 39.899C46.9283 39.899 47.6794 40.1383 48.2331 40.5642C48.7868 40.9902 49.0979 41.5679 49.0979 42.1703C49.0979 42.7726 48.7868 43.3503 48.2331 43.7763C47.6794 44.2022 46.9283 44.4415 46.1452 44.4415C45.3621 44.4415 44.6111 44.2022 44.0574 43.7763C43.5037 43.3503 43.1926 42.7726 43.1926 42.1703ZM55.0032 68.29V60.3405H48.3597V68.29H55.0032ZM43.9307 68.29V60.3405H37.2872V68.29H43.9307Z" fill="white"/>
</svg>
