<svg width="93" height="93" viewBox="0 0 93 93" fill="none" xmlns="http://www.w3.org/2000/svg">
<ellipse cx="46.1332" cy="46.1326" rx="46.1332" ry="46.1326" fill="#C5B94E"/>
<path d="M57.7695 48.347C57.7695 49.0811 57.4779 49.7852 56.9588 50.3043C56.4397 50.8234 55.7356 51.115 55.0015 51.115C54.2674 51.115 53.5634 50.8234 53.0443 50.3043C52.5252 49.7852 52.2335 49.0811 52.2335 48.347C52.2335 47.6129 52.5252 46.9089 53.0443 46.3898C53.5634 45.8707 54.2674 45.5791 55.0015 45.5791C55.7356 45.5791 56.4397 45.8707 56.9588 46.3898C57.4779 46.9089 57.7695 47.6129 57.7695 48.347ZM68.2879 46.1327C68.2879 58.3117 58.3231 68.2763 46.144 68.2763H24V46.1327C24 33.9537 33.9648 23.989 46.144 23.989C58.3231 23.989 68.2879 33.9537 68.2879 46.1327ZM35.072 59.4188C38.1943 62.1425 41.7152 63.8476 46.144 63.8476C55.9094 63.8476 63.8591 55.898 63.8591 46.1327C63.8591 44.3833 63.5934 42.7004 63.1284 41.1282C61.534 41.5046 59.8732 41.7039 58.146 41.7039C53.7172 41.7039 49.6206 40.3753 46.144 38.1388C46.144 38.1388 42.9109 50.0299 37.3528 48.347C35.8913 47.9042 35.072 49.0335 35.072 50.5614" fill="white"/>
</svg>
