<svg width="93" height="93" viewBox="0 0 93 93" fill="none" xmlns="http://www.w3.org/2000/svg">
<ellipse cx="46.1332" cy="46.1326" rx="46.1332" ry="46.1326" fill="#D5741B"/>
<path d="M43.376 62.7404C43.376 62.7404 40.608 62.7404 40.608 59.9724C40.608 57.2045 43.376 48.9006 54.4479 48.9006C65.5199 48.9006 68.2879 57.2045 68.2879 59.9724C68.2879 62.7404 65.5199 62.7404 65.5199 62.7404H43.376ZM54.4479 46.1326C56.6503 46.1326 58.7624 45.2578 60.3197 43.7005C61.877 42.1432 62.7519 40.0311 62.7519 37.8288C62.7519 35.6264 61.877 33.5143 60.3197 31.957C58.7624 30.3998 56.6503 29.5249 54.4479 29.5249C52.2456 29.5249 50.1334 30.3998 48.5761 31.957C47.0188 33.5143 46.144 35.6264 46.144 37.8288C46.144 40.0311 47.0188 42.1432 48.5761 43.7005C50.1334 45.2578 52.2456 46.1326 54.4479 46.1326Z" fill="white"/>
<path fill-rule="evenodd" clip-rule="evenodd" d="M38.4379 62.7404C38.0275 61.8763 37.8229 60.9289 37.84 59.9724C37.84 56.2218 39.7222 52.3605 43.1988 49.6756C41.4635 49.141 39.6556 48.8795 37.84 48.9006C26.768 48.9006 24 57.2045 24 59.9724C24 62.7404 26.768 62.7404 26.768 62.7404H38.4379Z" fill="white"/>
<path d="M36.456 46.1326C38.2913 46.1326 40.0514 45.4036 41.3491 44.1058C42.6469 42.8081 43.376 41.048 43.376 39.2127C43.376 37.3775 42.6469 35.6174 41.3491 34.3196C40.0514 33.0219 38.2913 32.2929 36.456 32.2929C34.6207 32.2929 32.8606 33.0219 31.5628 34.3196C30.2651 35.6174 29.536 37.3775 29.536 39.2127C29.536 41.048 30.2651 42.8081 31.5628 44.1058C32.8606 45.4036 34.6207 46.1326 36.456 46.1326Z" fill="white"/>
</svg>
